<svg width="400" height="400" xmlns="http://www.w3.org/2000/svg" xmlns:xlink="http://www.w3.org/1999/xlink">
 <title/>
 <desc/>
 <defs>
  <path id="path-1" d="m219.08852,205.3657c46.09816,11.583 80.91148,64.32344 80.91148,127.6343l-200,0c0,-63.31086 34.81332,-116.0513 80.91148,-127.6343c-29.38221,-8.30922 -50.91148,-35.32324 -50.91148,-67.3657c0,-38.65993 31.34007,-70 70,-70c38.65993,0 70,31.34007 70,70c0,32.04246 -21.52927,59.05648 -50.91145,67.36571l-0.00003,-0.00001z"/>
  <filter y="-50%" x="-50%" width="200%" id="filter-2" height="200%" filterUnits="objectBoundingBox">
   <feGaussianBlur stdDeviation="2"/>
  </filter>
 </defs>
 <g>
  <title>background</title>
  <rect fill="none" id="canvas_background" height="402" width="582" y="-1" x="-1"/>
 </g>
 <g>
  <title>Layer 1</title>
  <path id="Background-Copy-2" fill="#24329d" d="m200,400c110.45695,0 200,-89.54305 200,-200c0,-110.45695 -89.54305,-200 -200,-200c-110.45695,0 -200,89.54305 -200,200c0,110.45695 89.54305,200 200,200z"/>
  <use id="svg_1" xlink:href="#path-1" filter="url(#filter-2)" fill="black"/>
  <use id="svg_2" xlink:href="#path-1" fill-rule="evenodd" fill="#DCF0E6"/>
 </g>
</svg>